<svg height="512" viewBox="0 0 64 64" width="512" xmlns="http://www.w3.org/2000/svg"><g id="Fill_Outline" data-name="Fill Outline"><path d="m3 33h24v20h-24z" fill="#57b7eb"/><path d="m45 35h12v20h-12z" fill="#93999a"/><path d="m45 35v19h.53a8.18 8.18 0 0 0 7.47-8.27 9.47 9.47 0 0 1 3.78-7.57l.22-.16a9.91 9.91 0 0 0 -.46-3z" fill="#656b76"/><path d="m47 25a10 10 0 0 0 -10 10l-4 7 4 1a8 8 0 0 0 8.53 8 8.18 8.18 0 0 0 7.47-8.27 9.47 9.47 0 0 1 3.78-7.57l.22-.16a10 10 0 0 0 -10-10z" fill="#d0d8da"/><circle cx="43" cy="36" fill="#57b7eb" r="2"/><path d="m42 55h15a4 4 0 0 1 4 4v2a0 0 0 0 1 0 0h-24a0 0 0 0 1 0 0v-1a5 5 0 0 1 5-5z" fill="#d0d8da"/><path d="m45 55h-3a5 5 0 0 0 -5 5v1h24v-2h-12a4 4 0 0 1 -4-4z" fill="#93999a"/><path d="m39 33.5a25.53 25.53 0 0 1 .52-5.12 10 10 0 0 0 -2.52 6.62l-4 7 4 1a8 8 0 0 0 8.53 8 7.65 7.65 0 0 0 3.36-1c-5.51-.55-9.89-7.71-9.89-16.5z" fill="#93999a"/><circle cx="48" cy="30" fill="#fcbc04" r="2"/><path d="m50 6h8v8h-8z" fill="#d0d8da"/><circle cx="39" cy="5" fill="#f9e109" r="2"/><circle cx="33" cy="30" fill="#f9e109" r="2"/><circle cx="35" cy="18" fill="#f9e109" r="2"/><circle cx="27" cy="9" fill="#f9e109" r="2"/><circle cx="26" cy="24" fill="#f9e109" r="2"/><path d="m19 12a7 7 0 1 0 -11 5.74v2.26h8v-2.26a7 7 0 0 0 3-5.74z" fill="#f9e109"/><circle cx="12" cy="24" fill="#fcbc04" r="4"/><path d="m52 9v-3h-2v8h8v-2h-3a3 3 0 0 1 -3-3z" fill="#93999a"/><circle cx="48" cy="30" fill="#f9e109" r="2"/><path d="m49 31a2 2 0 0 1 -2-2 2 2 0 0 1 .18-.82 2 2 0 1 0 2.64 2.64 2 2 0 0 1 -.82.18z" fill="#fcbc04"/><path d="m34 31a2 2 0 0 1 -2-2 2 2 0 0 1 .18-.82 2 2 0 1 0 2.64 2.64 2 2 0 0 1 -.82.18z" fill="#fcbc04"/><path d="m27 25a2 2 0 0 1 -2-2 2 2 0 0 1 .18-.82 2 2 0 1 0 2.64 2.64 2 2 0 0 1 -.82.18z" fill="#fcbc04"/><path d="m36 19a2 2 0 0 1 -2-2 2 2 0 0 1 .18-.82 2 2 0 1 0 2.64 2.64 2 2 0 0 1 -.82.18z" fill="#fcbc04"/><path d="m28 10a2 2 0 0 1 -2-2 2 2 0 0 1 .18-.82 2 2 0 1 0 2.64 2.64 2 2 0 0 1 -.82.18z" fill="#fcbc04"/><path d="m40 6a2 2 0 0 1 -2-2 2 2 0 0 1 .18-.82 2 2 0 1 0 2.64 2.64 2 2 0 0 1 -.82.18z" fill="#fcbc04"/><path d="m7 33h-4v20h24v-4h-4a16 16 0 0 1 -16-16z" fill="#4891d3"/><path d="m17 40h-3v-3h-4v3h-3v4h3v3h4v-3h3z" fill="#f9e109"/><path d="m10 47h4v-.77a16.18 16.18 0 0 1 -5.37-6.23h-1.63v4h3z" fill="#fcbc04"/><rect fill="#a1d51c" height="4" rx="2" width="12" x="6" y="20"/><path d="m15.5 18a7.5 7.5 0 0 1 -5.36-12.74 7 7 0 0 0 -2.14 12.48v2.26h8v-2a4.19 4.19 0 0 1 -.5 0z" fill="#fcbc04"/><path d="m8 20h8a2 2 0 0 1 2 2 0 0 0 0 1 0 0h-8a2 2 0 0 1 -2-2 0 0 0 0 1 0 0z" fill="#c4f236"/><path d="m15 25a4 4 0 0 0 -3.83 2.91 3.77 3.77 0 0 0 .83.09 4 4 0 0 0 3.86-3z" fill="#f9e109"/><g fill="#1f2d51"><path d="m43 33a3 3 0 1 0 3 3 3 3 0 0 0 -3-3zm0 4a1 1 0 1 1 1-1 1 1 0 0 1 -1 1z"/><path d="m61 11h-2v-2h2a1 1 0 0 0 0-2h-2v-1a1 1 0 0 0 -1-1h-1v-2a1 1 0 0 0 -2 0v2h-2v-2a1 1 0 0 0 -2 0v2h-1a1 1 0 0 0 -1 1v1h-1.46l-1.71-2.55a1 1 0 0 0 -.83-.45h-3.18a3 3 0 1 0 0 2h2.64l1.71 2.55a1 1 0 0 0 .83.45h2v2h-6.82l-7.83-2.94a1 1 0 0 0 -.35-.06h-4.18a3 3 0 1 0 0 2h4l7.83 2.94a1 1 0 0 0 .35.06h2.86l-3.33 4h-3.71a3 3 0 1 0 0 2h4.18a1 1 0 0 0 .77-.36l4.7-5.64h1.53v1a1 1 0 0 0 1 1h1v3.5l-3.33 2.5h-4.67a1 1 0 0 0 0 2h5a1 1 0 0 0 .6-.2l4-3a1 1 0 0 0 .4-.8v-4h2v6.59l-5.71 5.71a3 3 0 0 0 -1.29-.3 3 3 0 0 0 -2.82 2h-4.87a9 9 0 0 1 6.69-3 1 1 0 0 0 0-2 10.93 10.93 0 0 0 -7.84 3.31l-1.16-3.63a1 1 0 0 0 -1-.68h-8.18a3 3 0 1 0 0 2h7.46l1.33 4h-1.79a3 3 0 1 0 0 2h1a10.75 10.75 0 0 0 -.82 3.73l-3.87 6.77a1 1 0 0 0 -.05.89 1 1 0 0 0 .68.58l3.28.82a9 9 0 0 0 2.81 5.78 8.9 8.9 0 0 0 5.15 2.37v2.06h-2a6 6 0 0 0 -6 6v1a1 1 0 0 0 2 0v-1a4 4 0 0 1 4-4h3a1 1 0 0 0 1-1v-3.07a9.16 9.16 0 0 0 8-9.2 8.5 8.5 0 0 1 3.38-6.73l.22-.16a1 1 0 0 0 .4-.84 10.85 10.85 0 0 0 -2.38-6.83 1 1 0 1 0 -1.57 1.24 8.86 8.86 0 0 1 1.95 5.1 10.51 10.51 0 0 0 -4 8.22 7.15 7.15 0 0 1 -6.53 7.27h-.47a6.91 6.91 0 0 1 -4.78-1.88 7 7 0 0 1 -1.54-2.12h3.32a1 1 0 0 0 0-2h-3.92a6.63 6.63 0 0 1 -.08-1 1 1 0 0 0 -.76-1l-2.72-.68 3.35-5.85a1.09 1.09 0 0 0 .13-.47 9 9 0 0 1 1-4h6.23a3 3 0 0 0 5.77-1 3 3 0 0 0 -.3-1.29l6-6a1 1 0 0 0 .3-.71v-7h1a1 1 0 0 0 1-1v-1h2a1 1 0 0 0 0-2zm-22-5a1 1 0 1 1 1-1 1 1 0 0 1 -1 1zm-12 4a1 1 0 1 1 1-1 1 1 0 0 1 -1 1zm8 9a1 1 0 1 1 1-1 1 1 0 0 1 -1 1zm-9 6a1 1 0 1 1 1-1 1 1 0 0 1 -1 1zm7 6a1 1 0 1 1 1-1 1 1 0 0 1 -1 1zm15 0a1 1 0 1 1 1-1 1 1 0 0 1 -1 1zm9-18h-6v-6h6z"/><circle cx="54" cy="10" r="1"/><path d="m14 36h-4a1 1 0 0 0 -1 1v2h-2a1 1 0 0 0 -1 1v4a1 1 0 0 0 1 1h2v2a1 1 0 0 0 1 1h4a1 1 0 0 0 1-1v-2h2a1 1 0 0 0 1-1v-4a1 1 0 0 0 -1-1h-2v-2a1 1 0 0 0 -1-1zm2 5v2h-2a1 1 0 0 0 -1 1v2h-2v-2a1 1 0 0 0 -1-1h-2v-2h2a1 1 0 0 0 1-1v-2h2v2a1 1 0 0 0 1 1z"/><path d="m27 32h-24a1 1 0 0 0 -1 1v12a1 1 0 0 0 2 0v-11h22v18h-22v-3a1 1 0 0 0 -2 0v4a1 1 0 0 0 1 1h7.72l-.5 2h-3.22a1 1 0 0 0 0 2h16a1 1 0 0 0 0-2h-3.22l-.5-2h7.72a1 1 0 0 0 1-1v-20a1 1 0 0 0 -1-1zm-9.28 24h-5.44l.5-2h4.44z"/><path d="m21 38h2a1 1 0 0 0 0-2h-2a1 1 0 0 0 0 2z"/><path d="m21 42h2a1 1 0 0 0 0-2h-2a1 1 0 0 0 0 2z"/><path d="m21 46h2a1 1 0 0 0 0-2h-2a1 1 0 0 0 0 2z"/><path d="m16 49a1 1 0 0 0 1 1h6a1 1 0 0 0 0-2h-6a1 1 0 0 0 -1 1z"/><path d="m19 60h-13a1 1 0 0 0 0 2h13a1 1 0 0 0 0-2z"/><path d="m27 60h-4a1 1 0 0 0 0 2h4a1 1 0 0 0 0-2z"/><path d="m58 54.1v-13.1a1 1 0 0 0 -2 0v13h-4a1 1 0 0 0 0 2h5a3 3 0 0 1 3 3v2a1 1 0 0 0 2 0v-2a5 5 0 0 0 -4-4.9z"/><path d="m7 18.24v.76h-1a1 1 0 0 0 0 2h10a1 1 0 0 1 0 2h-10a1 1 0 0 0 0 2h1.1a5 5 0 0 0 9.81-.16 3 3 0 0 0 .09-5.66v-.94a8 8 0 1 0 -10 0zm5 8.76a3 3 0 0 1 -2.82-2h5.64a3 3 0 0 1 -2.82 2zm-.2-8-1.28-5.79.93.62a1 1 0 0 0 1.1 0l.93-.62-1.28 5.79zm.2-13a6 6 0 0 1 3.43 10.92 1 1 0 0 0 -.43.82v1.26h-.75l1.75-7.78a1 1 0 0 0 -.41-1 1 1 0 0 0 -1.12 0l-2.47 1.58-2.45-1.63a1 1 0 0 0 -1.12 0 1 1 0 0 0 -.41 1l1.73 7.83h-.75v-1.26a1 1 0 0 0 -.43-.82 6 6 0 0 1 3.43-10.92z"/></g></g></svg>