<svg id="Layer_3" enable-background="new 0 0 64 64" height="512" viewBox="0 0 64 64" width="512" xmlns="http://www.w3.org/2000/svg"><path d="m8 2h48v60h-48z" fill="#e3e3e3"/><path d="m12 52h40v6h-40z" fill="#a5484e"/><path d="m12 52h37v6h-37z" fill="#dc6068"/><path d="m22 8h4v10h-4z" fill="#dc6068"/><path d="m30 10h4v8h-4z" fill="#dc6068"/><path d="m38 6h4v12h-4z" fill="#dc6068"/><path d="m14 6h4v12h-4z" fill="#dc6068"/><path d="m52 48h-45c-2.761 0-5-2.239-5-5 0-2.761 2.239-5 5-5h45z" fill="#cb9e78"/><path d="m14 48h-7c-2.761 0-5-2.239-5-5 0-2.761 2.239-5 5-5h7z" fill="#fcc062"/><path d="m52 38 10 5-10 5z" fill="#fcc062"/><g fill="#001503"><path d="m52 49h-45c-3.309 0-6-2.691-6-6s2.691-6 6-6h45c.552 0 1 .448 1 1v10c0 .552-.448 1-1 1zm-45-10c-2.206 0-4 1.794-4 4s1.794 4 4 4h44v-8z"/><path d="m52.447 48.895-.895-1.789 8.212-4.106-8.211-4.105.895-1.789 10 5c.338.169.552.515.552.894s-.214.725-.553.895z"/><path d="m15.929 42h14.142v2h-14.142z" transform="matrix(.707 -.707 .707 .707 -23.669 28.858)"/><path d="m25.929 42h14.142v2h-14.142z" transform="matrix(.707 -.707 .707 .707 -20.74 35.929)"/><path d="m35.929 42h14.142v2h-14.142z" transform="matrix(.707 -.707 .707 .707 -17.811 43)"/><path d="m13 38h2v10h-2z"/><path d="m56 63h-48c-.552 0-1-.448-1-1v-14h2v13h46v-15h2v16c0 .552-.448 1-1 1z"/><path d="m57 40h-2v-37h-46v35h-2v-36c0-.552.448-1 1-1h48c.552 0 1 .448 1 1z"/><path d="m19 18h-2v-11h-2v11h-2v-12c0-.552.448-1 1-1h4c.552 0 1 .448 1 1z"/><path d="m11 17h34v2h-34z"/><path d="m27 18h-2v-9h-2v9h-2v-10c0-.552.448-1 1-1h4c.552 0 1 .448 1 1z"/><path d="m35 18h-2v-7h-2v7h-2v-8c0-.552.448-1 1-1h4c.552 0 1 .448 1 1z"/><path d="m43 18h-2v-11h-2v11h-2v-12c0-.552.448-1 1-1h4c.552 0 1 .448 1 1z"/><path d="m11 21h42v2h-42z"/><path d="m11 25h40v2h-40z"/><path d="m11 29h32v2h-32z"/><path d="m11 33h30v2h-30z"/><path d="m52 59h-40c-.552 0-1-.448-1-1v-6c0-.552.448-1 1-1h40c.552 0 1 .448 1 1v6c0 .552-.448 1-1 1zm-39-2h38v-4h-38z"/></g></svg>