<svg height="512" viewBox="0 0 64 64" width="512" xmlns="http://www.w3.org/2000/svg"><g id="Fill_Outline" data-name="Fill Outline"><circle cx="23" cy="41" fill="#c4f236" r="20"/><path d="m33 53a20 20 0 0 1 -16.83-30.78 20 20 0 1 0 23.66 29.56 20.07 20.07 0 0 1 -6.83 1.22z" fill="#a1d51c"/><circle cx="23" cy="41" fill="#f9e109" r="15"/><path d="m13 33a19.68 19.68 0 0 1 .32-3.45 15 15 0 0 0 18.68 23.45 20 20 0 0 1 -19-20z" fill="#fcbc04"/><circle cx="23" cy="41" fill="#c4f236" r="10"/><circle cx="23" cy="41" fill="#f9e109" r="5"/><path d="m13.57 37.68a10.15 10.15 0 0 0 -.57 3.32 10 10 0 0 0 10 10 11.14 11.14 0 0 0 1.17-.07 20.07 20.07 0 0 1 -10.6-13.25z" fill="#a1d51c"/><path d="m34.49 12.51h12v22h-12z" fill="#d0d8da" transform="matrix(.707 .707 -.707 .707 28.48 -21.75)"/><path d="m42.62 25.87a8 8 0 0 1 -11.32 0l-.83-.87-2 2 8.53 8.53 15.51-15.53-2-2z" fill="#93999a"/><path d="m28.3 30.7h6v4h-6z" fill="#2d72bc" transform="matrix(.707 .707 -.707 .707 32.29 -12.56)"/><path d="m26.47 33.53h4v4h-4z" fill="#57b7eb" transform="matrix(.707 .707 -.707 .707 33.46 -9.73)"/><path d="m47.75 9.75h6v7h-6z" fill="#d0d8da" transform="matrix(.707 .707 -.707 .707 24.23 -32)"/><path d="m47.64 7.36h14v4h-14z" fill="#d0d8da" transform="matrix(.707 .707 -.707 .707 22.62 -35.89)"/><path d="m32.73 16.77h12v17h-12z" fill="#57b7eb" transform="matrix(.707 .707 -.707 .707 29.21 -19.98)"/><path d="m42.62 25.87a8 8 0 0 1 -11.32 0l-.83-.87-2 2 8.53 8.53 12-12-2-2z" fill="#4891d3"/><path d="m28.47 32.7-1 1 .42.41a2 2 0 0 1 0 2.83l-.42.42 1 1 2.83-2.83z" fill="#4891d3"/><path d="m55.34 9.9-5.57-5.57-1.5 1.5 9.9 9.9 2.83-2.83-1.94-1.9a4 4 0 0 1 -3.72-1.1z" fill="#93999a"/><path d="m53.22 12a4 4 0 0 1 -5.56.08l-1.51 1.51 4.24 4.24 5-5-1.5-1.5z" fill="#93999a"/><circle cx="55" cy="53" fill="#fcbc04" r="6"/><path d="m55 47v6h6a6 6 0 0 0 -6-6z" fill="#c4f236"/><g fill="#1f2d51"><path d="m27.77 27.75 1.41 1.41-2.12 2.12a1 1 0 0 0 0 1.42l-2.12 2.12a1 1 0 0 0 0 1.41l.7.71-2.82 2.83a1 1 0 0 0 0 1.41 1 1 0 0 0 1.41 0l2.83-2.82.71.7a1 1 0 0 0 .7.3 1 1 0 0 0 .71-.3l2.12-2.12a1 1 0 0 0 .71.29 1 1 0 0 0 .71-.29l2.12-2.12 1.41 1.41a1 1 0 0 0 .71.3 1 1 0 0 0 .71-.3l5.33-5.23a1 1 0 1 0 -1.41-1.41l-4.59 4.52-7.11-7.11 1.41-1.41 2.12 2.12a1 1 0 0 0 1.42 0 1 1 0 0 0 0-1.42l-2.12-2.12 1.41-1.41 2.12 2.12a1 1 0 0 0 .71.29 1 1 0 0 0 .71-1.7l-2.13-2.13 1.46-1.34 2.12 2.12a1 1 0 0 0 1.41 0 1 1 0 0 0 0-1.41l-2.12-2.12 2.12-2.13 7.08 7.08-3.21 3.2a1 1 0 0 0 0 1.41 1 1 0 0 0 1.42 0l7.44-7.44a1 1 0 0 0 0-1.42l-1.41-1.41 3.53-3.54 2.12 2.13a1 1 0 0 0 .71.29 1 1 0 0 0 .71-.29l2.83-2.83a1 1 0 0 0 0-1.42l-9.9-9.9a1 1 0 0 0 -1.42 1.42l9.2 9.19-1.42 1.41-2.12-2.12-4.28-4.22-2.81-2.88a1 1 0 1 0 -1.42 1.42l2.13 2.12-3.54 3.53-1.41-1.41a1 1 0 0 0 -1.42 0l-15.57 15.55a1 1 0 0 0 0 1.42zm.7 9.19-.7-.7-.7-.7 1.41-1.42 1.42 1.42zm3.53-2.12-2.82-2.82 1.41-1.41 2.83 2.83zm19.1-24.75 2.83 2.83-3.54 3.54-2.83-2.83zm-7.1 2.83 7.1 7.1-2.1 2.09-7.09-7.09z"/><path d="m45 54a1 1 0 0 0 0-2h-4.15a20.8 20.8 0 0 0 2.43-16.43 1 1 0 0 0 -1.23-.7 1 1 0 0 0 -.7 1.22 19.14 19.14 0 0 1 .65 4.91 18.87 18.87 0 0 1 -3.54 11h-3.87a16 16 0 0 0 4.41-11q0-.33 0-.66v-.21a1 1 0 0 0 -1.06-1 1 1 0 0 0 -.94 1.11v.23.53a14 14 0 0 1 -5.37 11h-7.63a11 11 0 0 0 10-11v-.11a1 1 0 0 0 -1-.89 1 1 0 0 0 -1 1 9 9 0 0 1 -8 8.94v-3a6 6 0 0 0 4.45-3.42 1 1 0 0 0 -1.82-.83 4 4 0 0 1 -2.63 2.17v-.86a1 1 0 0 0 -2 0v.86a4 4 0 0 1 -2.86-2.86h.86a1 1 0 0 0 0-2h-.86a4 4 0 0 1 2.2-2.63 1 1 0 0 0 -.83-1.82 6 6 0 0 0 -3.42 4.45h-3a9 9 0 0 1 8.88-8h.14a1 1 0 0 0 1-.94 1 1 0 0 0 -.96-1.06h-.15a11 11 0 0 0 -10.95 10h-.05v-7.63a14 14 0 0 1 11-5.37h.53.23a1 1 0 1 0 .11-2h-.21q-.33 0-.66 0a16 16 0 0 0 -11 4.41v-3.87a18.87 18.87 0 0 1 11-3.54 19.14 19.14 0 0 1 4.91.65 1 1 0 0 0 1.22-.7 1 1 0 0 0 -.7-1.23 20.8 20.8 0 0 0 -16.43 2.43v-5.15a1 1 0 0 0 -2 0v6.54a21 21 0 1 0 29.46 29.46zm-23-7.09v3a9 9 0 0 1 -7.94-7.91h3a6 6 0 0 0 4.94 4.91zm-11-4.91h1.05a11 11 0 0 0 9.95 10v1a1 1 0 0 0 1 1h5.17a14 14 0 0 1 -18.17-18.17v5.17a1 1 0 0 0 1 1zm12 18a19 19 0 0 1 -13-32.82v4.53a16 16 0 0 0 22.29 22.29h4.53a19 19 0 0 1 -13.82 6z"/><path d="m55 46a7 7 0 1 0 7 7 7 7 0 0 0 -7-7zm4.08 4.13.14.22a4.4 4.4 0 0 1 .31.56 2.56 2.56 0 0 0 .11.24 5.56 5.56 0 0 1 .25.82h-3.89v-3.87a5.56 5.56 0 0 1 .82.25l.24.11a4.4 4.4 0 0 1 .56.31l.22.14a5 5 0 0 1 1.24 1.22zm-4.08 7.87a5 5 0 0 1 -1-9.9v4.9a1 1 0 0 0 1 1h4.9a5 5 0 0 1 -4.9 4z"/><path d="m46 58h-2a1 1 0 0 0 0 2h2a1 1 0 0 0 0-2z"/><path d="m61 41h-7a1 1 0 0 0 0 2h7a1 1 0 0 0 0-2z"/><path d="m61 37h-5a1 1 0 0 0 0 2h5a1 1 0 0 0 0-2z"/><path d="m3 15h18a1 1 0 0 0 0-2h-17v-10a1 1 0 0 0 -2 0v11a1 1 0 0 0 1 1z"/><path d="m7 11a1 1 0 0 0 .6-.2l3.31-2.48 2.38 2.39a1.07 1.07 0 0 0 .71.29 1 1 0 0 0 .72-.35l6-7a1 1 0 0 0 -1.52-1.3l-5.3 6.18-2.19-2.24a1 1 0 0 0 -1.31-.09l-4 3a1 1 0 0 0 -.2 1.4 1 1 0 0 0 .8.4z"/><circle cx="26" cy="10" r="1"/><circle cx="26" cy="14" r="1"/><path d="m26 7h5a1 1 0 0 0 0-2h-5a1 1 0 0 0 0 2z"/></g></g></svg>