<?xml version="1.0"?>
<svg xmlns="http://www.w3.org/2000/svg" viewBox="0 0 64 64" width="512" height="512"><circle cx="44" cy="42" fill="#7d7d7d" r="17"/><circle cx="44" cy="42" fill="#d9d9d9" r="13"/><path d="m19 42v-2h-4v2a2 2 0 0 0 4 0z" fill="#d9d9d9"/><path d="m20 40a2 2 0 0 0 2-2v-1h-10v1a2 2 0 0 0 2 2z" fill="#7d7d7d"/><path d="m12 34h10v3h-10z" fill="#d9d9d9"/><path d="m22 30.064a13.892 13.892 0 0 1 -4 .885v.051-.051c-.333.024-.665.051-1 .051s-.671-.027-1-.051v.051-.051a13.892 13.892 0 0 1 -4-.885v3.936h10z" fill="#7d7d7d"/><g fill="#e39d10"><path d="m35.999 56-.999-5-7 7 1 3z"/><path d="m30 50-5 7 3 1 7-7z"/><circle cx="17" cy="17" r="14"/></g><circle cx="44" cy="42" fill="#10bde0" r="8"/><circle cx="44" cy="42" fill="#e39d10" r="3"/><path d="m44 24a18.01 18.01 0 0 0 -16.846 24.353l1.871-.706a15.985 15.985 0 1 1 9.328 9.328l-.706 1.871a18 18 0 1 0 6.353-34.846z"/><path d="m44 49a7.005 7.005 0 0 1 -3.5-.936l-1 1.731a9 9 0 1 0 -3.3-3.3l1.731-1a7 7 0 1 1 6.069 3.505z"/><path d="m38.615 54.926a13.985 13.985 0 1 0 -7.538-7.526l1.846-.772a11.987 11.987 0 1 1 6.462 6.458z"/><path d="m19 56h-14a3 3 0 0 0 0 6h12.169a22.053 22.053 0 0 0 10.263-2.542l.619 1.858a1 1 0 0 0 .949.684.989.989 0 0 0 .581-.187l7-5a1 1 0 0 0 .4-1.009l-.895-4.475 5.9-5.9a3.947 3.947 0 0 0 2.014.571 4 4 0 1 0 -4-4 3.947 3.947 0 0 0 .567 2.019l-5.9 5.9-4.467-.899a1 1 0 0 0 -1.01.4l-5 7a1 1 0 0 0 .5 1.53l.76.253a20.054 20.054 0 0 1 -8.281 1.797h-12.169a1 1 0 0 1 0-2h14a3 3 0 0 0 0-6h-14a1 1 0 0 1 0-2h7a6 6 0 0 0 5.935-5.164 2.993 2.993 0 0 0 2.065-2.836v-1a3 3 0 0 0 3-3v-7.261a15 15 0 1 0 -12 0v7.261a3 3 0 0 0 3 3v1a3 3 0 0 0 1.92 2.791 4.005 4.005 0 0 1 -3.92 3.209h-7a3 3 0 0 0 0 6h14a1 1 0 0 1 0 2zm15.892-.438-5.371 3.838-.377-1.129 5.242-5.241zm7.108-13.562a2 2 0 1 1 2 2 1.96 1.96 0 0 1 -.511-.075l1.218-1.218-1.414-1.414-1.218 1.218a1.96 1.96 0 0 1 -.075-.511zm-11.562 9.107 2.534.507-5.242 5.242-1.13-.377zm-17.438-16.107h8v1h-8zm-9-18a13 13 0 1 1 15.1 12.814l.568-6.814h2.332a4 4 0 1 0 -4-4.083l-.17 2.083h-1.663l-.167-2a4 4 0 1 0 -4 4h2.33l.568 6.814a13.009 13.009 0 0 1 -10.898-12.814zm12.92 13-.586-7h1.329l-.583 7c-.027 0-.053 0-.08 0s-.053 0-.08 0zm2.914-9 .166-2a2 2 0 1 1 2 2zm-5.671 0h-2.163a2 2 0 0 1 0-4 2.026 2.026 0 0 1 2 2.083zm2.837 11a14.925 14.925 0 0 0 4-.558v1.558h-8v-1.558a14.925 14.925 0 0 0 4 .558zm-4 6h8a1 1 0 0 1 -1 1h-6a1 1 0 0 1 -1-1zm5 3v1a1 1 0 0 1 -2 0v-1z"/><path d="m37.129 19.566a1 1 0 0 0 .919.216 23.206 23.206 0 0 1 17.452 2.3l1-1.732a25.185 25.185 0 0 0 -17.563-2.827c.042-.538.063-1.036.063-1.523a21.868 21.868 0 0 0 -3.944-12.572l-1.64 1.144a19.607 19.607 0 0 1 3.384 14.111 1 1 0 0 0 .329.883z"/><path d="m60.536 23.25-1.323 1.5a23.057 23.057 0 0 1 2.038 2.038l1.5-1.325a25.4 25.4 0 0 0 -2.215-2.213z"/></svg>
