<?xml version="1.0" encoding="iso-8859-1"?>
<!-- Generator: Adobe Illustrator 19.0.0, SVG Export Plug-In . SVG Version: 6.00 Build 0)  -->
<svg version="1.1" id="Capa_1" xmlns="http://www.w3.org/2000/svg" xmlns:xlink="http://www.w3.org/1999/xlink" x="0px" y="0px"
	 viewBox="0 0 480.001 480.001" style="enable-background:new 0 0 480.001 480.001;" xml:space="preserve">
<path style="fill:#F2F2F2;" d="M160,144V24c-0.111-8.725,6.872-15.889,15.597-16c0.001,0,0.002,0,0.003,0h280.8
	c8.725,0.11,15.71,7.272,15.6,15.997c0,0.001,0,0.002,0,0.003v216c0.111,8.725-6.872,15.889-15.597,16c-0.001,0-0.002,0-0.003,0
	l-280.456-1.016c-8.815-0.031-15.944-7.185-15.944-16V144z"/>
<path style="fill:#06AAE9;" d="M472,40H160V24c0-8.837,7.163-16,16-16h280c8.837,0,16,7.163,16,16V40z"/>
<path style="fill:#E6E6E6;" d="M159.832,184.168l-27.144,27.144c-3,3.001-7.069,4.687-11.312,4.688H40c-17.673,0-32,14.327-32,32
	v40.08h32V392h96V262.288c-0.001-4.042,1.528-7.935,4.28-10.896l41.816-44.992L159.832,184.168z"/>
<g>
	<path style="fill:#ECC19C;" d="M8,288.08V360c0,8.837,7.163,16,16,16s16-7.163,16-16v-71.92L8,288.08z"/>
	<path style="fill:#ECC19C;" d="M242,142c5.433-5.613,5.288-14.567-0.325-20c-5.484-5.309-14.191-5.309-19.675,0l-62,62
		l-0.168,0.168l22.264,22.232l0.336-0.36L242,142z"/>
</g>
<g>
	<path style="fill:#333333;" d="M400.296,384h-0.592c-20.378,0.383-37.447-15.34-38.736-35.68L360,326.784
		c-0.464-20.955,16.147-38.319,37.102-38.784c0.555-0.012,1.111-0.012,1.666,0h2.464c20.955-0.456,38.313,16.162,38.768,37.118
		c0.012,0.555,0.012,1.111,0,1.666l-0.936,21.536C437.775,368.673,420.686,384.401,400.296,384z"/>
	<path style="fill:#333333;" d="M224.296,384h-0.592c-20.377,0.383-37.447-15.34-38.736-35.68L184,326.784
		c-0.464-20.955,16.147-38.319,37.102-38.784c0.555-0.012,1.111-0.012,1.666,0h2.464c20.955-0.456,38.313,16.162,38.768,37.118
		c0.012,0.555,0.012,1.111,0,1.666l-0.936,21.536C261.775,368.673,244.686,384.401,224.296,384L224.296,384z"/>
</g>
<path style="fill:#29ABE2;" d="M296,472v-33.336C296,421.729,282.271,408,265.336,408l0,0h-82.672
	C165.729,408,152,421.729,152,438.664l0,0V472"/>
<path style="fill:#39B54A;" d="M472,472v-33.336C472,421.729,458.271,408,441.336,408l0,0h-82.672
	C341.729,408,328,421.729,328,438.664l0,0V472"/>
<path style="fill:#333333;" d="M101.064,127.2c2.401,12.688,13.233,22.046,26.136,22.576h0.472l0.328-6.992
	c0.464-20.955-16.147-38.319-37.102-38.784c-0.555-0.012-1.111-0.012-1.666,0h-2.464C65.813,103.544,48.455,120.163,48,141.118
	c-0.012,0.555-0.012,1.111,0,1.666l0.304,6.992H48.8C88,149.776,101.064,127.2,101.064,127.2z"/>
<path style="fill:#ECC19C;" d="M127.2,149.776c-12.903-0.53-23.735-9.888-26.136-22.576c0,0-13.064,22.576-52.264,22.576h-0.464
	l0.632,14.544c1.289,20.34,18.359,36.063,38.736,35.68h0.592c20.377,0.383,37.447-15.34,38.736-35.68l0.632-14.544H127.2z"/>
<path d="M87.696,200h0.608c24.681,0.436,45.302-18.692,46.72-43.336L136,135.128c0.536-12.121-3.956-23.926-12.416-32.624
	C114.582,93.2,102.178,87.963,89.232,88h-2.464c-12.933-0.026-25.319,5.21-34.312,14.504c-8.46,8.698-12.952,20.503-12.416,32.624
	l0.936,21.536C42.394,181.308,63.015,200.436,87.696,200z M88.304,184h-0.608c-16.094,0.414-29.652-11.937-30.736-28l-0.28-6.536
	c15.25-0.679,29.893-6.174,41.824-15.696c4.92,7.276,12.347,12.485,20.864,14.632l-0.328,7.6
	C117.956,172.063,104.398,184.414,88.304,184L88.304,184z M86.768,104h2.464c8.577-0.02,16.795,3.445,22.768,9.6
	c4.667,4.863,7.437,11.238,7.808,17.968c-5.536-2.474-9.552-7.45-10.8-13.384c-0.446-3.412-3.023-6.157-6.4-6.816
	c-3.365-0.696-6.795,0.854-8.496,3.84c-0.104,0.168-10.032,15.872-38.048,18.272c-0.069-7.412,2.782-14.553,7.936-19.88
	C69.973,107.445,78.191,103.98,86.768,104z"/>
<path d="M399.696,392h0.608c24.681,0.436,45.302-18.692,46.72-43.336L448,327.128c0.536-12.121-3.956-23.926-12.416-32.624
	c-9.002-9.304-21.406-14.541-34.352-14.504h-2.464c-12.933-0.026-25.319,5.21-34.312,14.504
	c-8.46,8.698-12.953,20.503-12.416,32.624l0.936,21.536C354.394,373.308,375.016,392.436,399.696,392L399.696,392z M376,305.6
	c5.973-6.155,14.191-9.62,22.768-9.6h2.464c8.577-0.02,16.795,3.445,22.768,9.6c5.426,5.563,8.32,13.116,8,20.88L431.04,348
	c-1.084,16.063-14.642,28.414-30.736,28h-0.608c-16.094,0.414-29.652-11.937-30.736-28L368,326.44
	C367.691,318.69,370.584,311.154,376,305.6L376,305.6z"/>
<path d="M24,384c2.725,0,5.43-0.462,8-1.368V392c0,4.418,3.582,8,8,8h96c4.418,0,8-3.582,8-8V262.288
	c-0.001-2.024,0.765-3.974,2.144-5.456l101.512-109.176c8.502-8.791,8.269-22.81-0.522-31.312c-8.584-8.303-22.206-8.303-30.79,0
	l-89.312,89.312c-1.502,1.502-3.54,2.346-5.664,2.344H40c-22.08,0.026-39.974,17.92-40,40v112C0,373.255,10.745,384,24,384L24,384z
	 M16,248c0-13.255,10.745-24,24-24h81.368c6.371,0.02,12.485-2.512,16.976-7.032l89.312-89.312c2.435-2.31,6.253-2.31,8.688,0
	c2.402,2.465,2.352,6.41-0.113,8.813c-0.029,0.028-0.058,0.056-0.087,0.083L134.4,245.944c-4.12,4.444-6.407,10.283-6.4,16.344V384
	H48V264c0-4.418-3.582-8-8-8s-8,3.582-8,8v96c0,4.418-3.582,8-8,8s-8-3.582-8-8V248z"/>
<path d="M88,344c4.418,0,8-3.582,8-8v-96c0-4.418-3.582-8-8-8s-8,3.582-8,8v96C80,340.419,83.582,344,88,344z"/>
<path d="M223.696,392h0.608c24.681,0.436,45.302-18.692,46.72-43.336l0.936-21.536c0.536-12.121-3.956-23.926-12.416-32.624
	c-8.993-9.294-21.379-14.53-34.312-14.504h-2.464c-12.933-0.026-25.319,5.21-34.312,14.504c-8.46,8.698-12.952,20.503-12.416,32.624
	l0.936,21.536C178.394,373.308,199.015,392.436,223.696,392L223.696,392z M200,305.6c5.973-6.155,14.191-9.62,22.768-9.6h2.464
	c8.577-0.02,16.795,3.445,22.768,9.6c5.426,5.563,8.32,13.116,8,20.88L255.04,348c-1.084,16.063-14.642,28.414-30.736,28h-0.608
	c-16.094,0.414-29.652-11.937-30.736-28L192,326.44C191.691,318.69,194.584,311.154,200,305.6L200,305.6z"/>
<path d="M144,438.664V472c0,4.418,3.582,8,8,8s8-3.582,8-8v-33.336c0.013-12.512,10.152-22.651,22.664-22.664h82.672
	c12.511,0.013,22.651,10.152,22.664,22.664V472c0,4.418,3.582,8,8,8s8-3.582,8-8v-33.336c-0.022-21.344-17.32-38.642-38.664-38.664
	h-82.672C161.32,400.022,144.022,417.32,144,438.664z"/>
<path d="M441.336,400h-82.672c-21.344,0.022-38.642,17.32-38.664,38.664V472c0,4.418,3.582,8,8,8s8-3.582,8-8v-33.336
	c0.013-12.512,10.152-22.651,22.664-22.664h82.672c12.511,0.013,22.651,10.152,22.664,22.664V472c0,4.418,3.582,8,8,8s8-3.582,8-8
	v-33.336C479.978,417.32,462.68,400.022,441.336,400z"/>
<path d="M456.4,0H175.6c-13.137,0.128-23.693,10.863-23.6,24v120c0,4.418,3.582,8,8,8s8-3.582,8-8V48h296v192
	c0.103,4.305-3.295,7.882-7.6,8h-273c-4.418,0-8,3.582-8,8s3.582,8,8,8h273c13.137-0.128,23.693-10.863,23.6-24V24
	C480.093,10.863,469.537,0.128,456.4,0z M168,32v-8c-0.103-4.305,3.295-7.882,7.6-8h280.8c4.305,0.118,7.703,3.695,7.6,8v8H168z"/>
<path d="M440,102c-4.418,0-8,3.582-8,8v114c0,4.418,3.582,8,8,8s8-3.582,8-8V110C448,105.582,444.418,102,440,102z"/>
<path d="M408,152c-4.418,0-8,3.582-8,8v64c0,4.418,3.582,8,8,8s8-3.582,8-8v-64C416,155.582,412.418,152,408,152z"/>
<path d="M368,144v80c0,4.418,3.582,8,8,8s8-3.582,8-8v-80c0-4.418-3.582-8-8-8S368,139.582,368,144z"/>
<path d="M344,184c-4.418,0-8,3.582-8,8v32c0,4.418,3.582,8,8,8s8-3.582,8-8v-32C352,187.582,348.418,184,344,184z"/>
<path d="M305.6,188.8c2.651,3.535,7.665,4.251,11.2,1.6c0,0,0,0,0,0l32-24c1.008-0.742,1.83-1.709,2.4-2.824l27.704-55.424
	L403.2,126.4c3.534,2.651,8.549,1.936,11.2-1.599c0.089-0.118,0.174-0.239,0.256-0.361l32-48c2.452-3.676,1.46-8.644-2.216-11.096
	c-3.676-2.452-8.644-1.46-11.096,2.216l-27.312,40.96L380.8,89.6c-3.521-2.669-8.539-1.977-11.208,1.544
	c-0.304,0.401-0.569,0.829-0.792,1.28l-31.152,62.312L307.2,177.6C303.665,180.251,302.949,185.266,305.6,188.8L305.6,188.8z"/>
<path d="M288,80c4.418,0,8-3.582,8-8s-3.582-8-8-8h-96c-4.418,0-8,3.582-8,8s3.582,8,8,8H288z"/>
<path d="M336,80c4.418,0,8-3.582,8-8s-3.582-8-8-8h-16c-4.418,0-8,3.582-8,8s3.582,8,8,8H336z"/>
<g>
</g>
<g>
</g>
<g>
</g>
<g>
</g>
<g>
</g>
<g>
</g>
<g>
</g>
<g>
</g>
<g>
</g>
<g>
</g>
<g>
</g>
<g>
</g>
<g>
</g>
<g>
</g>
<g>
</g>
</svg>
