<?xml version="1.0" encoding="iso-8859-1"?>
<!-- Generator: Adobe Illustrator 19.0.0, SVG Export Plug-In . SVG Version: 6.00 Build 0)  -->
<svg xmlns="http://www.w3.org/2000/svg" xmlns:xlink="http://www.w3.org/1999/xlink" version="1.1" id="Capa_1" x="0px" y="0px" viewBox="0 0 512 512" style="enable-background:new 0 0 512 512;" xml:space="preserve" width="512" height="512">
<g>
	<g>
		<rect x="23.532" y="79.645" style="fill:#ECEAEC;" width="464.935" height="320.645"/>
		<path style="fill:#DAD8DB;" d="M87.661,103.694h400.806V79.645H23.532V400.29h24.048V143.774    C47.581,121.638,65.525,103.694,87.661,103.694z"/>
		<path style="fill:#B6B1B7;" d="M496.484,47.581H15.516c-4.427,0-8.016,3.589-8.016,8.016v16.032c0,4.427,3.589,8.016,8.016,8.016    h480.968c4.427,0,8.016-3.589,8.016-8.016V55.597C504.5,51.169,500.911,47.581,496.484,47.581z"/>
		<path style="fill:#FFC269;" d="M239.968,183.855H87.661c-4.427,0-8.016-3.589-8.016-8.016v-32.065    c0-4.427,3.589-8.016,8.016-8.016h152.306c4.427,0,8.016,3.589,8.016,8.016v32.065    C247.984,180.266,244.395,183.855,239.968,183.855z"/>
		<path style="fill:#FFA95F;" d="M111.71,167.823c-8.854,0-16.032-7.178-16.032-16.032v-16.032h-8.016    c-4.427,0-8.016,3.589-8.016,8.016v32.065c0,4.427,3.589,8.016,8.016,8.016h152.306c4.427,0,8.016-3.589,8.016-8.016v-8.016    H111.71z"/>
		<path style="fill:#FFD064;" d="M151.79,247.984H87.661c-4.427,0-8.016-3.589-8.016-8.016v-16.032c0-4.427,3.589-8.016,8.016-8.016    h64.129c4.427,0,8.016,3.589,8.016,8.016v16.032C159.806,244.395,156.218,247.984,151.79,247.984z"/>
		<path style="fill:#FFD064;" d="M424.339,264.016h-32.065c-4.427,0-8.016-3.589-8.016-8.016v-16.032    c0-4.427,3.589-8.016,8.016-8.016h32.065c4.427,0,8.016,3.589,8.016,8.016V256C432.355,260.427,428.766,264.016,424.339,264.016z"/>
		<path style="fill:#FFC269;" d="M424.339,344.177h-56.113c-4.427,0-8.016-3.589-8.016-8.016v-32.065    c0-4.427,3.589-8.016,8.016-8.016h56.113c4.427,0,8.016,3.589,8.016,8.016v32.065    C432.355,340.588,428.766,344.177,424.339,344.177z"/>
		<path style="fill:#FFA95F;" d="M392.274,328.145c-8.854,0-16.032-7.178-16.032-16.032v-16.032h-8.016    c-4.427,0-8.016,3.589-8.016,8.016v32.065c0,4.427,3.589,8.016,8.016,8.016h56.113c4.427,0,8.016-3.589,8.016-8.016v-8.016    H392.274z"/>
		<circle style="fill:#FF8086;" cx="95.677" cy="328.145" r="24.048"/>
		<path style="fill:#E5646E;" d="M107.702,340.169c-13.282,0-24.048-10.767-24.048-24.048c0-3.524,0.8-6.846,2.163-9.862    c-8.351,3.771-14.187,12.129-14.187,21.886c0,13.282,10.767,24.048,24.048,24.048c9.758,0,18.116-5.836,21.886-14.186    C114.547,339.369,111.226,340.169,107.702,340.169z"/>
	</g>
	<g>
		<path d="M496.484,87.145c8.556,0,15.516-6.96,15.516-15.516V55.597c0-8.556-6.96-15.516-15.516-15.516H15.516    C6.96,40.081,0,47.041,0,55.597v16.032c0,8.556,6.96,15.516,15.516,15.516h0.516v305.646H7.5c-4.142,0-7.5,3.358-7.5,7.5    s3.358,7.5,7.5,7.5h241v18.297c-9.308,3.139-16.032,11.946-16.032,22.3c0,12.976,10.557,23.532,23.532,23.532    s23.532-10.557,23.532-23.532c0-10.353-6.724-19.16-16.032-22.3v-18.297h241c4.142,0,7.5-3.358,7.5-7.5s-3.358-7.5-7.5-7.5h-8.532    V87.145H496.484z M256,456.919c-4.705,0-8.532-3.828-8.532-8.532s3.828-8.532,8.532-8.532s8.532,3.828,8.532,8.532    S260.705,456.919,256,456.919z M480.968,392.791H31.032V87.145H440.37c4.142,0,7.5-3.358,7.5-7.5s-3.358-7.5-7.5-7.5H15.516    c-0.285,0-0.516-0.231-0.516-0.516V55.597c0-0.285,0.231-0.516,0.516-0.516h480.968c0.285,0,0.516,0.231,0.516,0.516v16.032    c0,0.285-0.231,0.516-0.516,0.516h-24.047c-4.142,0-7.5,3.358-7.5,7.5s3.358,7.5,7.5,7.5h8.531V392.791z"/>
		<path d="M79.645,255.484h16.029c4.142,0,7.5-3.358,7.5-7.5s-3.358-7.5-7.5-7.5h-8.529v-17.064h65.162v17.064H127.74    c-4.142,0-7.5,3.358-7.5,7.5s3.358,7.5,7.5,7.5h32.066c4.142,0,7.5-3.358,7.5-7.5v-32.064c0-4.142-3.358-7.5-7.5-7.5h-32.581    v-17.064h120.758c4.142,0,7.5-3.358,7.5-7.5v-48.097c0-4.142-3.358-7.5-7.5-7.5H79.645c-4.142,0-7.5,3.358-7.5,7.5v48.097    c0,4.142,3.358,7.5,7.5,7.5h32.581v17.064H79.645c-4.142,0-7.5,3.358-7.5,7.5v32.064    C72.145,252.126,75.503,255.484,79.645,255.484z M87.145,143.258h153.339v33.097H87.145V143.258z"/>
		<path d="M432.355,224.452h-48.097c-4.142,0-7.5,3.358-7.5,7.5v32.064c0,4.142,3.358,7.5,7.5,7.5h16.548v17.064h-40.597    c-4.142,0-7.5,3.358-7.5,7.5v48.097c0,4.142,3.358,7.5,7.5,7.5h72.146c4.142,0,7.5-3.358,7.5-7.5v-48.097    c0-4.142-3.358-7.5-7.5-7.5h-16.548v-17.064h16.548c4.142,0,7.5-3.358,7.5-7.5v-32.064    C439.855,227.81,436.497,224.452,432.355,224.452z M424.855,336.677h-57.146v-33.097h57.146V336.677z M424.855,256.516h-33.097    v-17.064h33.097V256.516z"/>
		<path d="M427.052,122.438l-34.777,34.778l-18.746-18.745c-2.929-2.929-7.678-2.929-10.606,0c-2.929,2.929-2.929,7.678,0,10.606    l24.049,24.048c1.464,1.464,3.384,2.197,5.303,2.197s3.839-0.732,5.303-2.197l40.081-40.081c2.929-2.929,2.929-7.678,0-10.606    C434.729,119.51,429.98,119.51,427.052,122.438z"/>
		<path d="M357.497,178.552c-1.863-1.862-4.566-2.612-7.122-1.973l-45.346,11.336c-4.019,1.004-6.462,5.077-5.457,9.095    c1.004,4.019,5.076,6.462,9.095,5.457l19.077-4.769L216.687,308.755c-7.667,7.667-17.862,11.89-28.706,11.89h-61.664    c-3.375-13.786-15.829-24.048-30.64-24.048c-17.396,0-31.548,14.152-31.548,31.548s14.152,31.548,31.548,31.548    c14.812,0,27.265-10.262,30.64-24.048h61.664c14.851,0,28.812-5.783,39.313-16.284L338.35,208.304l-4.769,19.077    c-1.005,4.018,1.438,8.09,5.457,9.095c0.61,0.153,1.222,0.226,1.825,0.226c3.36,0,6.418-2.275,7.27-5.683l11.336-45.346    C360.108,183.118,359.359,180.415,357.497,178.552z M95.677,344.693c-9.125,0-16.548-7.423-16.548-16.548    s7.423-16.548,16.548-16.548s16.548,7.423,16.548,16.548S104.802,344.693,95.677,344.693z"/>
		<path d="M255.484,215.919c0-4.142-3.358-7.5-7.5-7.5h-56.113c-4.142,0-7.5,3.358-7.5,7.5s3.358,7.5,7.5,7.5h56.113    C252.126,223.419,255.484,220.062,255.484,215.919z"/>
		<path d="M328.145,296.597h-24.048c-4.142,0-7.5,3.358-7.5,7.5s3.358,7.5,7.5,7.5h24.048c4.142,0,7.5-3.358,7.5-7.5    S332.287,296.597,328.145,296.597z"/>
		<path d="M328.145,328.661h-56.113c-4.142,0-7.5,3.358-7.5,7.5s3.358,7.5,7.5,7.5h56.113c4.142,0,7.5-3.358,7.5-7.5    S332.287,328.661,328.145,328.661z"/>
		<path d="M191.871,240.484c-4.142,0-7.5,3.358-7.5,7.5s3.358,7.5,7.5,7.5h24.048c4.142,0,7.5-3.358,7.5-7.5s-3.358-7.5-7.5-7.5    H191.871z"/>
	</g>
</g>















</svg>
